<?xml version="1.0" ?><!DOCTYPE svg  PUBLIC '-//W3C//DTD SVG 1.1//EN'  'http://www.w3.org/Graphics/SVG/1.1/DTD/svg11.dtd'><svg enable-background="new 0 0 512 512" height="512px" id="Слой_1" version="1.1" viewBox="0 0 512 512" width="512px" xml:space="preserve" xmlns="http://www.w3.org/2000/svg" xmlns:xlink="http://www.w3.org/1999/xlink"><g><g><path clip-rule="evenodd" d="M225.681,285.498c0.12,0.12,0.237,0.238,0.35,0.35     c3.094,3.084,6.43,5.584,10.009,7.505c3.009,1.656,6.19,2.897,9.544,3.725v25.716h-59.067c-0.428,0.003-0.854,0.003-1.28,0     c-0.058,0-0.115,0-0.175,0h-1.28c-6.036-0.139-11.644-1.302-16.819-3.49L225.681,285.498z M266.359,177.57     c4.695,2.551,9.078,5.849,13.152,9.891c3.846,3.839,7.027,7.95,9.545,12.336c2.057-1.646,4.266-2.945,6.633-3.899     c3.299-1.354,6.885-2.032,10.766-2.036c7.818-0.02,14.49,2.715,20.021,8.204c0.318,0.317,0.629,0.647,0.93,0.989l-41.084,23.621     c-0.07-0.123-0.148-0.24-0.234-0.349c-0.125-0.054-0.242-0.111-0.348-0.175c-1.787-1.772-3.652-3.345-5.588-4.713     c-4.238-3.007-8.834-5.12-13.793-6.342V177.57z M130.357,196.188c-5.708,5.686-12.207,9.409-19.495,11.172v97.337     c7.246,1.757,13.706,5.426,19.379,10.998c0.068,0.062,0.146,0.118,0.233,0.173c0.107,0.093,0.224,0.19,0.349,0.291l18.04-10.414     c-7.078-8.423-10.629-18.295-10.649-29.613c0.03-10.884,3.328-20.426,9.893-28.626c1.182-1.47,2.461-2.904,3.841-4.306     c8.632-8.594,18.952-13.111,30.962-13.557c-0.011-0.753-0.011-1.51,0-2.269c0-0.444,0-0.89,0-1.339l32.298,18.618     c-0.477,1.822-0.826,3.704-1.048,5.644c-0.275,1.863-0.431,3.784-0.465,5.76c0.024,4.015,0.528,7.836,1.513,11.463     l-66.228,38.225c0.938,1.142,1.947,2.248,3.027,3.316c0.496,0.5,1,0.984,1.513,1.454c4.102,3.812,8.582,6.721,13.442,8.728     l-25.896,14.952c1.008,3.594,1.552,7.375,1.63,11.346c0.001,0.077,0.001,0.154,0,0.234c-0.079,3.918-0.604,7.643-1.572,11.17     l84.501,48.698c0.133-0.116,0.27-0.232,0.407-0.349l0.058-0.059c5.7-5.625,12.219-9.329,19.554-11.113v-71.389h20.717v-25.716     c7.268-1.764,13.75-5.486,19.438-11.171c0.09-0.048,0.188-0.086,0.291-0.116c0.092-0.12,0.189-0.236,0.291-0.35l58.719,33.921     c-5.559,2.324-11.611,3.488-18.158,3.49c-0.059,0-0.115,0-0.172,0h-60.408v71.33c7.266,1.797,13.744,5.502,19.438,11.113     c0.07,0.043,0.146,0.082,0.234,0.116c0.102,0.106,0.199,0.22,0.291,0.35l84.555-48.641c-1.023-3.647-1.545-7.489-1.57-11.521     c0.025-4.068,0.529-7.948,1.514-11.637l-25.723-14.661c4.367-1.853,8.441-4.411,12.223-7.68c0.904-0.784,1.797-1.618,2.674-2.502     c1.08-1.07,2.107-2.178,3.086-3.316l-66.342-38.341c0.949-3.527,1.453-7.272,1.514-11.229c0-0.078,0-0.155,0-0.232     c-0.014-0.709-0.033-1.407-0.061-2.095c-0.191-3.182-0.676-6.228-1.453-9.135l38.002-21.877c-0.063,2.479-0.41,4.845-1.049,7.098     c10.039,1.364,18.809,5.786,26.303,13.267c4.195,4.169,7.438,8.746,9.719,13.73c2.65,5.838,3.969,12.237,3.957,19.201     c0.012,11.313-3.479,21.187-10.475,29.613l17.926,10.298c0.16-0.143,0.318-0.279,0.465-0.406v-0.06     c5.695-5.593,12.174-9.277,19.438-11.055v-97.104c-7.268-1.794-13.748-5.479-19.438-11.055v-0.058     c-0.133-0.095-0.27-0.192-0.406-0.291l-46.439,26.821c0-0.279,0-0.551,0-0.814c0.016-3.875-0.645-7.463-1.98-10.764     c-1.219-2.995-3.002-5.749-5.354-8.262l43.414-24.96c-0.984-3.649-1.488-7.489-1.514-11.521c0.025-3.99,0.529-7.792,1.514-11.403     l-84.617-48.755c-0.117,0.119-0.236,0.236-0.348,0.349c-5.709,5.665-12.207,9.37-19.496,11.113v59.694     c-4.08-2.239-8.385-3.907-12.919-5.004c-2.534-0.604-5.134-1.03-7.798-1.279v-53.296c-7.357-1.789-13.896-5.532-19.611-11.228     c-0.112-0.111-0.229-0.229-0.35-0.349l-84.559,48.755c0.969,3.531,1.493,7.254,1.572,11.172c0.001,0.076,0.001,0.154,0,0.231     c-0.079,3.997-0.623,7.798-1.63,11.405l46.499,26.646c2.73-6.214,6.707-11.916,11.93-17.106c1.364-1.356,2.761-2.636,4.189-3.84     c10.171-8.462,22.101-12.69,35.79-12.683c2.078,0.008,4.115,0.124,6.11,0.349v43.811c-3.793,0.915-7.361,2.35-10.708,4.306     c-3.125,1.791-6.055,4.041-8.787,6.749c-0.087,0.063-0.186,0.121-0.291,0.175c-0.069,0.092-0.147,0.189-0.232,0.291     l-38.059-21.993c-1.357,3.085-2.425,6.285-3.201,9.6c-0.853,3.762-1.318,7.68-1.396,11.754l-52.319-30.081     c-0.03,0.069-0.069,0.128-0.115,0.175C130.428,196.104,130.388,196.142,130.357,196.188z M225.972,47.127l0.116-0.058     c6.775-6.69,14.709-10.646,23.802-11.869c1.963-0.265,3.98-0.4,6.053-0.407c11.616,0.025,21.567,4.117,29.854,12.276l0.115,0.058     c8.129,8.182,12.262,18.073,12.396,29.672c0.002,0.084,0.002,0.181,0,0.291c-0.098,3.972-0.662,7.753-1.688,11.346l84.5,48.64     c0.152-0.113,0.307-0.23,0.465-0.349v-0.175c8.27-8.109,18.262-12.163,29.971-12.159c11.596-0.014,21.529,4.039,29.795,12.159     l0.117,0.232c3.123,3.127,5.662,6.502,7.623,10.124c3.078,5.874,4.65,12.39,4.713,19.549c0.002,0.077,0.002,0.155,0,0.232     c-0.123,11.642-4.256,21.513-12.393,29.615c-5.721,5.717-12.24,9.46-19.555,11.229v96.988     c7.291,1.743,13.791,5.428,19.494,11.055l0.117,0.118c8.107,8.2,12.223,18.111,12.336,29.729c0.002,0.057,0.002,0.116,0,0.175     c-0.068,6.587-1.426,12.601-4.074,18.037c-2.004,4.223-4.779,8.1-8.318,11.636c-8.285,8.264-18.234,12.396-29.855,12.394     c-11.715-0.007-21.703-4.139-29.971-12.394c-0.146-0.127-0.283-0.243-0.406-0.35l-84.559,48.7     c1.025,3.555,1.59,7.336,1.688,11.345c0.002,0.109,0.002,0.205,0,0.291c-0.143,11.642-4.295,21.512-12.453,29.614     c-6.988,6.995-15.174,11.027-24.559,12.102c-1.738,0.205-3.523,0.303-5.354,0.291c-11.694-0.009-21.665-4.139-29.912-12.393     c-8.171-8.135-12.265-18.046-12.279-29.732c0.006-4.031,0.491-7.87,1.455-11.518l-84.384-48.7     c-0.111,0.127-0.228,0.245-0.349,0.35c-0.046,0.032-0.086,0.068-0.117,0.116c-8.301,8.266-18.272,12.396-29.912,12.394     c-11.713-0.01-21.704-4.139-29.971-12.394c-4.156-4.146-7.239-8.762-9.252-13.848c-1.997-4.88-3.006-10.195-3.027-15.941     c0.025-11.646,4.118-21.572,12.279-29.788l0.059-0.116c5.7-5.586,12.217-9.252,19.554-10.998V207.36     c-7.359-1.771-13.896-5.495-19.613-11.172c-8.17-8.134-12.263-18.044-12.279-29.73c0.002-7.532,1.689-14.358,5.064-20.479     c1.895-3.353,4.3-6.493,7.215-9.426l0.059-0.116c8.25-8.11,18.223-12.164,29.912-12.16c11.598-0.013,21.529,4.041,29.796,12.16     c0.068,0.101,0.146,0.197,0.233,0.291c0.146,0.111,0.281,0.227,0.406,0.349l84.326-48.64c-0.964-3.626-1.449-7.448-1.455-11.461     C213.757,65.312,217.831,55.362,225.972,47.127z" fill="#333333" fill-rule="evenodd"/></g></g></svg>